<svg xmlns="http://www.w3.org/2000/svg" viewBox="0 0 433.88 92.39"><defs><style>.cls-1{fill:blue;}.cls-2{fill:#fff;}.cls-3{fill:red;}</style></defs><title>china-airlines_2</title><g id="圖層_2" data-name="圖層 2"><g id="圖層_1-2" data-name="圖層 1"><path class="cls-1" d="M32,4.84H19v33.3H13.21V4.84H0V0H32Z"/><path class="cls-1" d="M55.44,0,70.69,38.14H64.37L60.46,27.91H43.53l-3.9,10.23H33.3L48.55,0ZM52.09,5H51.9L50.79,8.37q-.2.38-5.77,14.88H59Q53.39,8.75,53.21,8.37A3.35,3.35,0,0,0,53,7.63,13.17,13.17,0,0,1,52.09,5Z"/><path class="cls-1" d="M75.16,38.14V0h5.77V38.14Z"/><path class="cls-1" d="M85.76,0H91.9q5.2,22.89,6.33,28.46c.12.38.37,1.49.74,3.35h.19c.37-1.49.68-2.66.93-3.53q1.66-5.78,7.44-28.28h6.32q7.08,27.72,7.63,29.21c.12.62.31,1.74.56,3.35h.19c.24-1.37.43-2.3.55-2.79Q123,28.65,129.3,0h6.13l-10,38.14h-6.14q-7.64-28.47-8-29.4a14.06,14.06,0,0,1-.37-2.6h-.19a20.59,20.59,0,0,1-.37,2.42q-.19.75-8.19,29.58H95.62Z"/><path class="cls-1" d="M157.76,0,173,38.14h-6.32l-3.91-10.23H145.85L142,38.14h-6.33L150.88,0Zm-3.35,5h-.18c-.38,1.12-.75,2.24-1.12,3.35q-.2.38-5.77,14.88h13.95q-5.58-14.5-5.76-14.88a3.35,3.35,0,0,0-.19-.74A13.17,13.17,0,0,1,154.41,5Z"/><path class="cls-1" d="M177.48,0h6.88l19.35,31.25h.19V0h5.58V38.14h-6.7L183.06,6.7V38.14h-5.58Z"/><path class="cls-2" d="M36.49,64.47,30.72,66q-2.23-7.44-10-7.81Q9.69,58.9,9,72.85q.56,14,11.54,14.88,8.93-.18,10.79-9.68L37,79.73Q34.25,92.39,20.49,92.38,3.56,91.45,2.63,73q.93-18.78,18-19.9Q32.58,53.51,36.49,64.47Z"/><path class="cls-2" d="M75.55,91.82h-6V74.89H49.32V91.82H43.56V53.68h5.76V69.87H69.6V53.68h6Z"/><path class="cls-2" d="M84.11,91.82V53.68h5.77V91.82Z"/><path class="cls-2" d="M98.81,53.68h6.88L125,84.94h.19V53.68h5.58V91.82h-6.7L104.39,60.38V91.82H98.81Z"/><path class="cls-2" d="M157.23,53.68l15.25,38.14h-6.32l-3.91-10.23H145.32l-3.91,10.23h-6.32l15.25-38.14Zm-3.35,5h-.19l-1.11,3.35q-.2.38-5.77,14.88h13.95Q155.18,62.42,155,62.06a3.26,3.26,0,0,0-.19-.75A13.2,13.2,0,0,1,153.88,58.71Z"/><path class="cls-2" d="M207.83,53.68l15.26,38.14h-6.33l-3.91-10.23H195.92L192,91.82h-6.33L201,53.68Zm-3.35,5h-.18l-1.12,3.35q-.18.38-5.77,14.88h14q-5.58-14.52-5.77-14.88a2.79,2.79,0,0,0-.19-.75A13.2,13.2,0,0,1,204.48,58.71Z"/><path class="cls-2" d="M227.55,91.82V53.68h5.77V91.82Z"/><path class="cls-2" d="M275.74,91.82h-7.45L256.57,76h-8.74V91.82h-5.77V53.68h17.68q12.83.38,13.58,11,0,9.68-10.61,11ZM247.83,58.34v13h10.6q8.94,0,8.75-6.51,0-6.51-8.75-6.51Z"/><path class="cls-2" d="M306.43,91.82h-26V53.68h5.77V87.36h20.27Z"/><path class="cls-2" d="M312.76,91.82V53.68h5.77V91.82Z"/><path class="cls-2" d="M327.46,53.68h6.88l19.35,31.26h.19V53.68h5.58V91.82h-6.7L333,60.38V91.82h-5.58Z"/><path class="cls-2" d="M397,91.82H367.83V53.68h28.46v4.84H373.78V69.87H395v4.84H373.78V87.17H397Z"/><path class="cls-2" d="M402.43,80.29l6-1.3q1.29,9.11,10.6,9.11,8.19-.18,8.56-6.51.56-4.28-7.63-6.51a17.14,17.14,0,0,0-3.16-.93,5.46,5.46,0,0,0-1.12-.19q-12.47-2.59-11.72-10.6.75-9.68,13.58-10.23,13-.2,15.26,10.41L427,64.85Q425.69,58,417.87,58q-7.25.2-7.81,5.4-.56,4.27,8.93,6.14c2.48.62,4.34,1.11,5.58,1.49q9.49,3,9.3,10.41-.37,10.6-14.69,11T402.43,80.29Z"/><rect class="cls-3" x="0.34" y="70.45" width="175.9" height="6.48"/></g></g></svg>